{"title":"WWE Main Event 2014 05 06 XviD-NZLSS -={SPARROW}=-","uid":10106753,"size":607093795,"categoryP":"video","categoryS":"tv_shows","magnet":"?xt=urn:btih:c05bb688088cc4ac3e4ca67845a9268445f22adf&amp;dn=WWE+Main+Event+2014+05+06+XviD-NZLSS+-%3D%7BSPARROW%7D%3D-&amp;tr=udp%3A%2F%2Ftracker.openbittorrent.com%3A80&amp;tr=udp%3A%2F%2Fopen.demonii.com%3A1337&amp;tr=udp%3A%2F%2Ftracker.coppersurfer.tk%3A6969&amp;tr=udp%3A%2F%2Fexodus.desync.com%3A6969","seeders":2,"leechers":1,"uploader":"CenaCme","files":-1,"time":1399423316,"description":"General\nComplete name                            : WWE.Main.Event.2014.05.06.XviD-NZLSS.avi\nFormat                                   : AVI\nFormat/Info                              : Audio Video Interleave\nFile size                                : 579 MiB\nDuration                                 : 49mn 18s\nOverall bit rate                         : 1 642 Kbps\nWriting application                      : Lavf55.37.101\n\nVideo\nID                                       : 0\nFormat                                   : MPEG-4 Visual\nFormat profile                           : Simple@L1\nFormat settings, BVOP                    : No\nFormat settings, QPel                    : No\nFormat settings, GMC                     : No warppoints\nFormat settings, Matrix                  : Default (H.263)\nCodec ID                                 : FMP4\nDuration                                 : 49mn 17s\nBit rate                                 : 1 500 Kbps\nWidth                                    : 700 pixels\nHeight                                   : 402 pixels\nDisplay aspect ratio                     : 16:9\nFrame rate                               : 29.970 fps\nColor space                              : YUV\nChroma subsampling                       : 4:2:0\nBit depth                                : 8 bits\nScan type                                : Progressive\nCompression mode                         : Lossy\nBits/(Pixel*Frame)                       : 0.178\nStream size                              : 529 MiB (91%)\nWriting library                          : Lavc55.60.100\n\nAudio\nID                                       : 1\nFormat                                   : MPEG Audio\nFormat version                           : Version 1\nFormat profile                           : Layer 3\nMode                                     : Joint stereo\nMode extension                           : MS Stereo\nCodec ID                                 : 55\nCodec ID/Hint                            : MP3\nDuration                                 : 49mn 18s\nBit rate mode                            : Constant\nBit rate                                 : 128 Kbps\nChannel(s)                               : 2 channels\nSampling rate                            : 48.0 KHz\nCompression mode                         : Lossy\nStream size                              : 45.1 MiB (8%)\nAlignment                                : Aligned on interleaves\nInterleave, duration                     : 24 ms (0.72 video frame)","torrent":{"xt":"urn:btih:c05bb688088cc4ac3e4ca67845a9268445f22adf","amp;dn":"WWE+Main+Event+2014+05+06+XviD-NZLSS+-%3D%7BSPARROW%7D%3D-","amp;tr":["udp%3A%2F%2Ftracker.openbittorrent.com%3A80","udp%3A%2F%2Fopen.demonii.com%3A1337","udp%3A%2F%2Ftracker.coppersurfer.tk%3A6969","udp%3A%2F%2Fexodus.desync.com%3A6969"],"infoHash":"c05bb688088cc4ac3e4ca67845a9268445f22adf","infoHashBuffer":{"type":"Buffer","data":[192,91,182,136,8,140,196,172,62,76,166,120,69,169,38,132,69,242,42,223]},"announce":[],"urlList":[]}}